<?xml version="1.0" ?><svg viewBox="0 0 512 512" xmlns="http://www.w3.org/2000/svg" xmlns:xlink="http://www.w3.org/1999/xlink"><style>:root>svg{display:none}:root>svg:target{display:block}</style><svg viewBox="0 0 32 32" id="double" xmlns="http://www.w3.org/2000/svg"><path fill="#FFF" d="M21.294.285l6.57 6.57v24.86H4.13V.285z"/><path fill="red" d="M28.086 7.108h-7.11V0z"/><path d="M20.976 1l6.103 6.103V31H4.914V1h16.062m.414-1H3.914v32h24.165V6.689L21.39 0z" fill="#333"/><path fill="#666" d="M5.913 2.001h14.063v6.107h6.103v21.89H5.913z"/><g fill="#FFF"><path d="M12.397 21.007v3.43h-.784v-3.43h-1.192v-.703h3.212v.703h-1.236zM14.813 20.304v4.133h-.784v-4.133h.784zM16.33 20.965v1.114h1.853v.66H16.33v1.698h-.784v-4.133h2.737v.66H16.33zM19.545 20.965v1.114h1.853v.66h-1.853v1.698h-.784v-4.133h2.736v.66h-1.952z"/></g></svg><svg viewBox="0 0 512 512" id="first" xmlns="http://www.w3.org/2000/svg"><path d="M257.7 384.5l65.6-57.4H51.6V442h271.8l-65.7-57.5zM122.5 408c-3.5 2.6-8 4-13.7 4-5.4 0-10.2-1.4-14.2-4.3s-6-7-5.9-12.2l.1-.2h8.6c0 3.2 1.1 5.6 3.3 7.3 2.2 1.6 4.9 2.4 8.1 2.4 3.2 0 5.6-.7 7.4-2 1.7-1.3 2.6-3.1 2.6-5.4 0-2.2-.8-4.1-2.4-5.5-1.6-1.4-4.4-2.7-8.4-3.8-5.8-1.6-10.2-3.7-13.3-6.3-3.1-2.6-4.7-6-4.7-10.1 0-4.3 1.7-7.9 5.1-10.6 3.4-2.8 7.8-4.2 13.2-4.2 5.8 0 10.4 1.5 13.9 4.6 3.5 3.1 5.1 6.9 5 11.5l-.1.2h-8.6c0-2.8-.9-5.1-2.8-6.7-1.9-1.7-4.4-2.5-7.5-2.5-3 0-5.3.7-7 2.1-1.6 1.4-2.4 3.3-2.4 5.5 0 2.1.9 3.8 2.7 5.1 1.8 1.3 4.7 2.6 8.9 3.8 5.6 1.6 9.9 3.7 12.8 6.4 2.9 2.7 4.4 6.2 4.4 10.4.1 4.3-1.6 7.9-5.1 10.5zm39.1 3.2h-8.5L134 357.7h9.5l12.7 39 1 3.9h.2l.9-3.8 12.8-39h9.5l-19 53.4zm66.7-7.2c-1.5 2.1-3.8 3.9-7 5.6-3.2 1.6-7.4 2.4-12.5 2.4-6.3 0-11.5-2-15.6-6.1s-6.1-9.3-6.1-15.8v-11.2c0-6.5 2-11.7 5.9-15.8 3.9-4.1 9-6.1 15.2-6.1 6.2 0 11.1 1.6 14.5 4.7 3.5 3.1 5.2 7.2 5.1 12.3l-.1.2h-8.5c0-3-.9-5.4-2.8-7.3-1.9-1.8-4.6-2.8-8.1-2.8-3.7 0-6.7 1.4-8.9 4.1-2.3 2.8-3.4 6.3-3.4 10.5v11.2c0 4.3 1.2 7.9 3.5 10.6 2.4 2.8 5.4 4.2 9.2 4.2 2.9 0 5.1-.3 6.8-1 1.7-.6 2.9-1.4 3.8-2.4v-11.1h-11.2v-6.7h20.1V404zM455.8 117.2h-27.9v-54h-63.1v54H337c-4 0-6.1 4.2-3.4 6.8l59.4 68.9c1.8 1.8 5 1.8 6.8 0l59.4-68.9c2.7-2.7.6-6.8-3.4-6.8zM364.8 28.9h63.1v24.5h-63.1z"/><path d="M389.5 206v259.4c0 15.1-12.2 27.3-27.3 27.3H99.6c-15.1 0-27.3-12.2-27.3-27.3v-14.6H58.9v20c0 19.5 15.8 35.4 35.4 35.4h273.2c19.5 0 35.4-15.8 35.4-35.4V206.1c-2 .8-4.2 1.2-6.5 1.2-2.4 0-4.8-.5-6.9-1.3zM72.3 81.1c0-15.1 12.2-27.3 27.3-27.3h252.1V40.5H94.3c-19.5 0-35.4 15.8-35.4 35.4v242.5h13.4V81.1z"/><path d="M323.2 132H112.3v19.4H340l-16.1-18.6c-.3-.2-.5-.5-.7-.8zM112.3 163.5h237.2v19.4H112.3zM112.3 195h237.2v19.4H112.3zM112.3 226.6h237.2V246H112.3zM112.3 258.1h185.8v19.4H112.3zM427.9 10.1c0-2.2-2-4.1-4.6-4.1h-54c-2.5 0-4.6 1.8-4.6 4.1v9h63.1v-9z"/></svg><svg viewBox="0 0 32 32" id="second" xmlns="http://www.w3.org/2000/svg"><path d="M28.082 6.689L21.394 0H3.918v32h24.165V6.689zm-1 24.311H4.918V1H20.98v6.107h6.103V31z"/><path d="M19.98 2.001H5.917v27.997h20.165V8.108H19.98V2.001zm-3.576 22.437l-.264-.793h-1.783l-.257.793h-.829l1.374-4.133h1.178l1.396 4.133h-.815zm1.956 0h-.784v-4.133h.784v4.133z"/><path d="M14.543 23.066h1.416l-.714-2.152z"/></svg><svg viewBox="0 0 32 32" id="third" xmlns="http://www.w3.org/2000/svg"><path fill="#FFF" d="M21.294.285l6.57 6.57v24.86H4.13V.285z"/><path fill="red" d="M28.086 7.108h-7.11V0z"/><path d="M20.976 1l6.103 6.103V31H4.914V1h16.062m.414-1H3.914v32h24.165V6.689L21.39 0z" fill="#333"/><path fill="#666" d="M5.913 2.001h14.063v6.107h6.103v21.89H5.913z"/><g fill="#FFF"><path d="M13.662 21.509h-.767a.892.892 0 01-.006-.084c-.019-.232-.069-.378-.154-.438s-.284-.09-.6-.09c-.371 0-.614.034-.728.104-.114.068-.172.213-.172.433 0 .26.047.417.14.469.093.053.399.093.92.121.616.034 1.014.122 1.194.264s.271.435.271.881c0 .549-.106.903-.318 1.064-.212.16-.679.24-1.401.24-.649 0-1.081-.078-1.294-.236-.213-.157-.319-.476-.319-.956l-.003-.151h.763l.003.088c0 .288.051.465.151.529s.376.097.826.097c.352 0 .575-.037.672-.111.098-.075.146-.247.146-.518 0-.2-.036-.333-.11-.398-.073-.065-.232-.105-.477-.119l-.433-.027c-.654-.039-1.072-.13-1.254-.272-.182-.144-.272-.451-.272-.924 0-.482.109-.804.328-.964.22-.161.657-.241 1.312-.241.622 0 1.041.074 1.257.222.216.146.324.435.324.862v.155zM16.952 20.304h.83l-1.332 4.133h-1.205l-1.32-4.133h.814l.775 2.341c.072.224.181.6.323 1.126h.021l.079-.281c.097-.352.18-.632.248-.842l.767-2.344zM19.749 22.239h1.82l.012.821c0 .597-.113.981-.338 1.154s-.727.259-1.506.259c-.715 0-1.188-.115-1.42-.345-.232-.23-.348-.699-.348-1.408 0-.904.046-1.475.139-1.713.115-.291.29-.486.524-.588.233-.101.631-.151 1.192-.151.734 0 1.209.078 1.422.235.215.156.322.503.322 1.039h-.794c-.014-.271-.073-.438-.177-.504s-.365-.098-.782-.098c-.454 0-.742.056-.864.169s-.184.379-.184.796l-.003.415.006.53c0 .409.061.67.182.782s.401.168.842.168c.428 0 .7-.048.815-.143.116-.095.175-.318.175-.672l.003-.169h-1.039v-.577z"/></g></svg></svg>