<?xml version="1.0" ?><svg enable-background="new 0 0 32 32" version="1.1" viewBox="0 0 32 32" xml:space="preserve" xmlns="http://www.w3.org/2000/svg" xmlns:xlink="http://www.w3.org/1999/xlink"><g id="Outline_Color"><g><g><polygon fill="#FFFFFF" points="21.294,0.285 27.864,6.855 27.864,31.715 4.13,31.715 4.13,0.285    "/></g><g><polygon fill="#FF0000" points="28.086,7.108 20.976,7.108 20.976,0    "/></g><g><path d="M20.976,1l6.103,6.103V31H4.914V1H20.976 M21.39,0H3.914v32h24.165V6.689L21.39,0L21.39,0z" fill="#333333"/></g><g><polygon fill="#666666" points="5.913,2.001 19.976,2.001 19.976,8.108 26.079,8.108 26.079,29.998 5.913,29.998    "/></g></g><g><path d="M12.397,21.007v3.43h-0.784v-3.43h-1.192v-0.703h3.212v0.703H12.397z" fill="#FFFFFF"/><path d="M14.813,20.304v4.133h-0.784v-4.133H14.813z" fill="#FFFFFF"/><path d="M16.33,20.965v1.114h1.853v0.66H16.33v1.698h-0.784v-4.133h2.737v0.66H16.33z" fill="#FFFFFF"/><path d="M19.545,20.965v1.114h1.853v0.66h-1.853v1.698h-0.784v-4.133h2.736v0.66H19.545z" fill="#FFFFFF"/></g></g></svg>