<?xml version="1.0" ?><svg enable-background="new 0 0 32 32" version="1.1" viewBox="0 0 32 32" xml:space="preserve" xmlns="http://www.w3.org/2000/svg" xmlns:xlink="http://www.w3.org/1999/xlink"><g id="Outline_Color"><g><g><polygon fill="#FFFFFF" points="21.294,0.285 27.864,6.855 27.864,31.715 4.13,31.715 4.13,0.285    "/></g><g><polygon fill="#FF0000" points="28.086,7.108 20.976,7.108 20.976,0    "/></g><g><path d="M20.976,1l6.103,6.103V31H4.914V1H20.976 M21.39,0H3.914v32h24.165V6.689L21.39,0L21.39,0z" fill="#333333"/></g><g><polygon fill="#666666" points="5.913,2.001 19.976,2.001 19.976,8.108 26.079,8.108 26.079,29.998 5.913,29.998    "/></g></g><g><path d="M13.662,21.509h-0.767c-0.004-0.038-0.006-0.066-0.006-0.084c-0.019-0.232-0.069-0.378-0.154-0.438    s-0.284-0.09-0.6-0.09c-0.371,0-0.614,0.034-0.728,0.104c-0.114,0.068-0.172,0.213-0.172,0.433c0,0.26,0.047,0.417,0.14,0.469    c0.093,0.053,0.399,0.093,0.92,0.121c0.616,0.034,1.014,0.122,1.194,0.264s0.271,0.435,0.271,0.881    c0,0.549-0.106,0.903-0.318,1.064c-0.212,0.16-0.679,0.24-1.401,0.24c-0.649,0-1.081-0.078-1.294-0.236    c-0.213-0.157-0.319-0.476-0.319-0.956l-0.003-0.151h0.763l0.003,0.088c0,0.288,0.051,0.465,0.151,0.529s0.376,0.097,0.826,0.097    c0.352,0,0.575-0.037,0.672-0.111c0.098-0.075,0.146-0.247,0.146-0.518c0-0.2-0.036-0.333-0.11-0.398    c-0.073-0.065-0.232-0.105-0.477-0.119l-0.433-0.027c-0.654-0.039-1.072-0.13-1.254-0.272c-0.182-0.144-0.272-0.451-0.272-0.924    c0-0.482,0.109-0.804,0.328-0.964c0.22-0.161,0.657-0.241,1.312-0.241c0.622,0,1.041,0.074,1.257,0.222    c0.216,0.146,0.324,0.435,0.324,0.862V21.509z" fill="#FFFFFF"/><path d="M16.952,20.304h0.83l-1.332,4.133h-1.205l-1.32-4.133h0.814l0.775,2.341    c0.072,0.224,0.181,0.6,0.323,1.126h0.021l0.079-0.281c0.097-0.352,0.18-0.632,0.248-0.842L16.952,20.304z" fill="#FFFFFF"/><path d="M19.749,22.239h1.82l0.012,0.821c0,0.597-0.113,0.981-0.338,1.154s-0.727,0.259-1.506,0.259    c-0.715,0-1.188-0.115-1.42-0.345c-0.232-0.23-0.348-0.699-0.348-1.408c0-0.904,0.046-1.475,0.139-1.713    c0.115-0.291,0.29-0.486,0.524-0.588c0.233-0.101,0.631-0.151,1.192-0.151c0.734,0,1.209,0.078,1.422,0.235    c0.215,0.156,0.322,0.503,0.322,1.039h-0.794c-0.014-0.271-0.073-0.438-0.177-0.504s-0.365-0.098-0.782-0.098    c-0.454,0-0.742,0.056-0.864,0.169s-0.184,0.379-0.184,0.796l-0.003,0.415l0.006,0.53c0,0.409,0.061,0.67,0.182,0.782    s0.401,0.168,0.842,0.168c0.428,0,0.7-0.048,0.815-0.143c0.116-0.095,0.175-0.318,0.175-0.672l0.003-0.169h-1.039V22.239z" fill="#FFFFFF"/></g></g></svg>